<svg xmlns="http://www.w3.org/2000/svg" viewBox="0 0 32 32" width="32" height="32">
  <defs>
    <style>
      .sun-rays { fill: #D97706; }
      .sun-circle { fill: #F59E0B; }
      .wave { fill: #1E40AF; }
    </style>
  </defs>
  
  <!-- Background -->
  <rect width="32" height="32" fill="#F2E9DD"/>
  
  <!-- Sun rays -->
  <g class="sun-rays">
    <rect x="15" y="2" width="2" height="4" rx="1"/>
    <rect x="23" y="5" width="2" height="4" rx="1" transform="rotate(45 24 7)"/>
    <rect x="26" y="15" width="4" height="2" rx="1"/>
    <rect x="23" y="23" width="2" height="4" rx="1" transform="rotate(135 24 25)"/>
    <rect x="15" y="26" width="2" height="4" rx="1"/>
    <rect x="5" y="23" width="2" height="4" rx="1" transform="rotate(225 6 25)"/>
    <rect x="2" y="15" width="4" height="2" rx="1"/>
    <rect x="5" y="5" width="2" height="4" rx="1" transform="rotate(315 6 7)"/>
  </g>
  
  <!-- Sun circle -->
  <circle cx="16" cy="12" r="6" class="sun-circle"/>
  
  <!-- Waves (simplified) -->
  <g class="wave">
    <path d="M6 20 Q10 18 14 20 T22 20" stroke="#1E40AF" stroke-width="2" fill="none"/>
    <path d="M8 23 Q12 21 16 23 T24 23" stroke="#1E40AF" stroke-width="2" fill="none"/>
    <path d="M4 26 Q8 24 12 26 T20 26" stroke="#1E40AF" stroke-width="2" fill="none"/>
  </g>
</svg>